<svg version="1" xmlns="http://www.w3.org/2000/svg" width="21.333" height="21.333" viewBox="0 0 16.000000 16.000000"><path d="M8.431 1.795c-.028.042-.055 1.92-.055 4.16v4.076l2.56-2.56c1.405-1.419 2.56-2.63 2.56-2.713 0-.07-.265-.431-.585-.807-.668-.737-1.99-1.641-2.74-1.878-.724-.223-1.684-.376-1.74-.278zM4.911 2.463c-.097.027-.18.125-.18.18 0 .126 2.754 2.922 2.865 2.922.028 0 .056-.208.056-.459 0-.39-.18-.64-1.127-1.6C5.44 2.407 5.287 2.31 4.911 2.463zM3.687 3.34c-.264.291-.264.291 1.85 2.406l2.115 2.115v-.543c0-.514-.111-.654-1.85-2.407l-1.85-1.864-.265.292zM2.616 4.48c-.223.334-.195.362 2.407 2.991l2.63 2.644v-.57c0-.557-.07-.64-2.408-2.978l-2.42-2.42-.21.333zM11.116 8.348l-2.74 2.755-.028 1.502c-.014.835-.014 1.656-.014 1.837.014.208-.042.292-.153.222-.084-.055-.111-.041-.056.056.125.195 1.225.07 2.06-.25 2.754-1.044 4.424-3.507 4.354-6.4-.028-.877-.431-2.533-.612-2.49-.042.013-1.308 1.265-2.81 2.768zM1.906 5.802c-.18.292-.417 1.46-.459 2.198-.111 2.24 1.016 4.452 2.894 5.746.696.473 1.906.946 2.727 1.071.57.084.584.07.584-.32 0-.208.084-.473.181-.57.125-.153.125-.18 0-.097-.14.083-.18-.223-.18-1.28 0-1.197-.043-1.406-.28-1.628-.152-.14-.236-.306-.18-.39.042-.07.028-.097-.056-.055-.07.041-1.224-1.016-2.56-2.352-1.321-1.321-2.462-2.42-2.518-2.42a.189.189 0 0 0-.153.097z"/></svg>