<?xml version="1.0" standalone="no"?>
<!DOCTYPE svg PUBLIC "-//W3C//DTD SVG 20010904//EN"
 "http://www.w3.org/TR/2001/REC-SVG-20010904/DTD/svg10.dtd">
<svg version="1.0" xmlns="http://www.w3.org/2000/svg"
 width="16.000000pt" height="16.000000pt" viewBox="0 0 16.000000 16.000000"
 preserveAspectRatio="xMidYMid meet">
<metadata>
Created by potrace 1.11, written by Peter Selinger 2001-2013
</metadata>
<g transform="translate(0.000000,16.000000) scale(0.013913,-0.013913)"
fill="#000000" stroke="none">
<path d="M606 1021 c-2 -3 -4 -138 -4 -299 l0 -293 184 184 c101 102 184 189
184 195 0 5 -19 31 -42 58 -48 53 -143 118 -197 135 -52 16 -121 27 -125 20z"/>
<path d="M353 973 c-7 -2 -13 -9 -13 -13 0 -9 198 -210 206 -210 2 0 4 15 4
33 0 28 -13 46 -81 115 -78 79 -89 86 -116 75z"/>
<path d="M265 910 c-19 -21 -19 -21 133 -173 l152 -152 0 39 c0 37 -8 47 -133
173 l-133 134 -19 -21z"/>
<path d="M188 828 c-16 -24 -14 -26 173 -215 l189 -190 0 41 c0 40 -5 46 -173
214 l-174 174 -15 -24z"/>
<path d="M799 550 l-197 -198 -2 -108 c-1 -60 -1 -119 -1 -132 1 -15 -3 -21
-11 -16 -6 4 -8 3 -4 -4 9 -14 88 -5 148 18 198 75 318 252 313 460 -2 63 -31
182 -44 179 -3 -1 -94 -91 -202 -199z"/>
<path d="M137 733 c-13 -21 -30 -105 -33 -158 -8 -161 73 -320 208 -413 50
-34 137 -68 196 -77 41 -6 42 -5 42 23 0 15 6 34 13 41 9 11 9 13 0 7 -10 -6
-13 16 -13 92 0 86 -3 101 -20 117 -11 10 -17 22 -13 28 3 5 2 7 -4 4 -5 -3
-88 73 -184 169 -95 95 -177 174 -181 174 -4 0 -9 -3 -11 -7z"/>
</g>
</svg>
